<?xml version="1.0" encoding="UTF-8"?>
<svg width="260" height="200" viewBox="0 0 260 200" fill="none" xmlns="http://www.w3.org/2000/svg" role="img" aria-label="Bird sticker">
  <defs>
    <linearGradient id="g" x1="22" y1="18" x2="240" y2="186" gradientUnits="userSpaceOnUse">
      <stop offset="0" stop-color="#60A5FA"/>
      <stop offset="0.55" stop-color="#A78BFA"/>
      <stop offset="1" stop-color="#F472B6"/>
    </linearGradient>
    <filter id="s" x="-30" y="-30" width="320" height="260" filterUnits="userSpaceOnUse" color-interpolation-filters="sRGB">
      <feDropShadow dx="0" dy="10" stdDeviation="10" flood-color="#000000" flood-opacity="0.18"/>
    </filter>
  </defs>

  <g filter="url(#s)">
    <path d="M62 108c0-38 32-68 72-68 26 0 49 13 61 32 22-2 43 12 43 36 0 22-16 40-38 42-12 20-34 34-60 34-43 0-78-32-78-76Z" fill="url(#g)"/>
    <path d="M83 116c20-16 42-26 66-30-12 16-30 30-56 42-4 2-8 0-10-4-2-3-1-7 0-8Z" fill="#ffffff" fill-opacity="0.55"/>
    <circle cx="153" cy="94" r="7" fill="#111827" fill-opacity="0.55"/>
    <path d="M182 100c12-2 20-6 28-14-2 14-10 24-24 30-6 2-10 1-12-3-2-5 1-11 8-13Z" fill="#FDE047" fill-opacity="0.92"/>
    <path d="M40 120c10 18 26 32 46 40" stroke="#ffffff" stroke-opacity="0.6" stroke-width="10" stroke-linecap="round"/>
  </g>
</svg>

