<?xml version="1.0" encoding="UTF-8"?>
<svg width="260" height="320" viewBox="0 0 260 320" fill="none" xmlns="http://www.w3.org/2000/svg" role="img" aria-label="Balloons sticker">
  <defs>
    <filter id="s" x="-30" y="-30" width="320" height="380" filterUnits="userSpaceOnUse" color-interpolation-filters="sRGB">
      <feDropShadow dx="0" dy="12" stdDeviation="12" flood-color="#000000" flood-opacity="0.18"/>
    </filter>
    <linearGradient id="b1" x1="60" y1="30" x2="160" y2="170" gradientUnits="userSpaceOnUse">
      <stop offset="0" stop-color="#60A5FA"/>
      <stop offset="1" stop-color="#38BDF8"/>
    </linearGradient>
    <linearGradient id="b2" x1="90" y1="20" x2="200" y2="180" gradientUnits="userSpaceOnUse">
      <stop offset="0" stop-color="#F472B6"/>
      <stop offset="1" stop-color="#FB7185"/>
    </linearGradient>
    <linearGradient id="b3" x1="40" y1="60" x2="160" y2="220" gradientUnits="userSpaceOnUse">
      <stop offset="0" stop-color="#FDE047"/>
      <stop offset="1" stop-color="#FB923C"/>
    </linearGradient>
  </defs>

  <g filter="url(#s)">
    <path d="M106 60c0-28 18-48 42-48s42 20 42 48c0 36-20 70-42 70S106 96 106 60Z" fill="url(#b2)"/>
    <path d="M46 98c0-30 20-52 48-52s48 22 48 52c0 38-23 76-48 76S46 136 46 98Z" fill="url(#b1)"/>
    <path d="M136 112c0-28 18-48 42-48s42 20 42 48c0 36-20 70-42 70s-42-34-42-70Z" fill="url(#b3)"/>

    <path d="M90 174c14 16 32 18 54 6" stroke="#111827" stroke-opacity="0.18" stroke-width="4" stroke-linecap="round"/>
    <path d="M162 182c12 12 26 10 40-4" stroke="#111827" stroke-opacity="0.18" stroke-width="4" stroke-linecap="round"/>
    <path d="M136 132c10 14 24 16 42 6" stroke="#ffffff" stroke-opacity="0.35" stroke-width="8" stroke-linecap="round"/>
    <path d="M66 112c10 14 24 16 42 6" stroke="#ffffff" stroke-opacity="0.35" stroke-width="8" stroke-linecap="round"/>
    <path d="M126 90c10 14 22 16 36 6" stroke="#ffffff" stroke-opacity="0.35" stroke-width="8" stroke-linecap="round"/>

    <path d="M92 180c10 22 14 44 12 66" stroke="#111827" stroke-opacity="0.20" stroke-width="4" stroke-linecap="round"/>
    <path d="M150 186c6 24 8 46 4 66" stroke="#111827" stroke-opacity="0.20" stroke-width="4" stroke-linecap="round"/>
    <path d="M194 182c-2 26-8 50-18 72" stroke="#111827" stroke-opacity="0.20" stroke-width="4" stroke-linecap="round"/>

    <path d="M98 256l10 10 10-10" stroke="#111827" stroke-opacity="0.22" stroke-width="4" stroke-linecap="round" stroke-linejoin="round"/>
    <path d="M148 258l8 8 8-8" stroke="#111827" stroke-opacity="0.22" stroke-width="4" stroke-linecap="round" stroke-linejoin="round"/>
    <path d="M172 270l10 10 10-10" stroke="#111827" stroke-opacity="0.22" stroke-width="4" stroke-linecap="round" stroke-linejoin="round"/>
  </g>
</svg>

